<?xml version="1.0" encoding="UTF-8"?>
<svg xmlns="http://www.w3.org/2000/svg" xmlns:xlink="http://www.w3.org/1999/xlink" width="262.5pt" height="242.249991pt" viewBox="0 0 262.5 242.249991" version="1.2">
<defs>
<clipPath id="clip1">
  <path d="M 125 104.273438 L 145 104.273438 L 145 127 L 125 127 Z M 125 104.273438 "/>
</clipPath>
<clipPath id="clip2">
  <path d="M 104.34375 120 L 153.035156 120 L 153.035156 143.976562 L 104.34375 143.976562 Z M 104.34375 120 "/>
</clipPath>
</defs>
<g id="surface1">
<path style=" stroke:none;fill-rule:nonzero;fill:rgb(100%,100%,100%);fill-opacity:1;" d="M 125.175781 126.519531 C 124.011719 127.628906 122.867188 128.75 121.785156 129.941406 C 123 128.933594 124.230469 127.933594 125.457031 126.9375 C 125.351562 126.949219 125.25 126.957031 125.140625 126.96875 C 125.140625 126.96875 125.160156 126.789062 125.175781 126.519531 Z M 125.175781 126.519531 "/>
<g clip-path="url(#clip1)" clip-rule="nonzero">
<path style=" stroke:none;fill-rule:nonzero;fill:rgb(100%,100%,100%);fill-opacity:1;" d="M 144.191406 104.296875 C 143.28125 106.917969 140.519531 109.933594 137.917969 112.335938 L 137.21875 113.773438 L 137.503906 112.71875 C 135.734375 114.328125 134.113281 115.605469 133.257812 116.261719 L 132.113281 118.234375 L 132.613281 116.746094 C 130.730469 117.90625 129.3125 118.960938 128.246094 119.882812 C 127.46875 121.683594 126.265625 123.828125 126.265625 123.828125 L 126.8125 121.222656 C 125.480469 122.605469 125.140625 123.433594 125.140625 123.433594 C 125.277344 124.511719 125.21875 125.84375 125.175781 126.519531 C 127.253906 124.550781 129.417969 122.671875 131.578125 120.777344 C 134.835938 117.875 138.375 114.785156 141.015625 111.296875 C 138.664062 114.980469 135.195312 118.28125 132.046875 121.289062 C 129.941406 123.265625 127.707031 125.109375 125.457031 126.9375 C 128.257812 126.625 130.558594 126.96875 130.558594 126.96875 C 131.449219 126.273438 132.265625 125.539062 133.050781 124.789062 L 131.242188 124.511719 L 133.78125 124.058594 C 142.226562 115.453125 144.191406 104.296875 144.191406 104.296875 Z M 144.191406 104.296875 "/>
</g>
<path style=" stroke:none;fill-rule:nonzero;fill:rgb(100%,100%,100%);fill-opacity:1;" d="M 120.09375 135.222656 C 122.257812 133.710938 125.246094 132.371094 128 132.726562 C 129.058594 132.769531 130.085938 132.941406 131.109375 133.199219 C 131.675781 133.347656 132.867188 133.917969 133.261719 133.429688 C 136.121094 129.902344 139.90625 128.863281 144.191406 128.441406 C 142.457031 125.597656 140.632812 122.800781 138.765625 120.042969 C 140.066406 122.632812 141.417969 125.203125 142.824219 127.734375 C 139.085938 127.988281 135.652344 129.054688 132.964844 131.757812 C 130.566406 127.75 132.964844 131.757812 130.566406 127.75 L 131.582031 131.917969 C 127.820312 131.042969 123.972656 131.054688 120.589844 133.167969 C 118.417969 129.472656 116.226562 125.792969 114.003906 122.121094 C 116.667969 119.40625 121.78125 119.8125 125.191406 120.042969 C 122.820312 119.613281 119.8125 118.914062 117.410156 119.65625 C 115.78125 120.082031 114.09375 120.582031 112.875 121.816406 C 112.496094 122.203125 114.824219 125.78125 115.152344 126.382812 C 116.765625 129.347656 118.441406 132.277344 120.09375 135.222656 Z M 120.09375 135.222656 "/>
<path style=" stroke:none;fill-rule:nonzero;fill:rgb(100%,100%,100%);fill-opacity:1;" d="M 126.867188 136.535156 C 128.679688 136.472656 130.644531 136.699219 132.375 137.253906 C 132.691406 137.359375 134.230469 138.019531 134.429688 137.765625 C 138.085938 133.148438 143.195312 131.59375 148.804688 131.179688 C 146.523438 127.53125 144.25 123.875 141.835938 120.3125 C 143.546875 123.691406 145.367188 127.011719 147.195312 130.328125 C 142.128906 130.574219 137.257812 132.261719 133.859375 136.203125 C 128.644531 134.621094 122.753906 134.554688 118.125 137.734375 C 115.09375 132.753906 112.097656 127.75 108.882812 122.882812 C 111.671875 128.523438 114.726562 134.035156 117.714844 139.570312 C 120.449219 137.59375 123.519531 136.714844 126.867188 136.535156 Z M 126.867188 136.535156 "/>
<g clip-path="url(#clip2)" clip-rule="nonzero">
<path style=" stroke:none;fill-rule:nonzero;fill:rgb(100%,100%,100%);fill-opacity:1;" d="M 144.953125 120.589844 C 147.136719 124.785156 149.433594 128.910156 151.734375 133.042969 C 145.421875 133.34375 139.417969 135.421875 135.179688 140.386719 C 128.734375 138.390625 121.441406 138.289062 115.683594 142.277344 C 111.953125 136.078125 108.257812 129.847656 104.34375 123.761719 C 107.832031 130.625 111.582031 137.359375 115.28125 144.113281 C 118.753906 141.5625 123.023438 140.296875 127.335938 140.390625 C 128.316406 140.414062 129.289062 140.511719 130.257812 140.660156 C 131.9375 140.835938 133.511719 141.683594 135.152344 141.867188 C 135.972656 141.957031 135.925781 141.628906 136.554688 140.9375 C 137.289062 140.128906 138.097656 139.390625 138.953125 138.710938 C 140.730469 137.300781 142.699219 136.238281 144.804688 135.398438 C 147.574219 134.296875 150.40625 134.09375 153.34375 133.890625 C 150.589844 129.433594 147.839844 124.96875 144.953125 120.589844 Z M 144.953125 120.589844 "/>
</g>
<path style=" stroke:none;fill-rule:nonzero;fill:rgb(100%,100%,100%);fill-opacity:1;" d="M 157.1875 83.878906 C 207.476562 119.117188 281.230469 100.609375 245.988281 150.898438 C 244.945312 152.390625 243.867188 153.851562 242.75 155.289062 C 241.632812 156.726562 240.480469 158.132812 239.296875 159.511719 C 238.109375 160.894531 236.890625 162.242188 235.640625 163.5625 C 234.390625 164.882812 233.105469 166.171875 231.789062 167.429688 C 230.476562 168.6875 229.128906 169.910156 227.753906 171.101562 C 226.378906 172.292969 224.976562 173.449219 223.546875 174.570312 C 222.113281 175.695312 220.65625 176.78125 219.167969 177.832031 C 217.683594 178.882812 216.175781 179.894531 214.640625 180.871094 C 213.105469 181.847656 211.546875 182.785156 209.964844 183.6875 C 208.386719 184.585938 206.78125 185.449219 205.160156 186.269531 C 203.535156 187.089844 201.894531 187.871094 200.234375 188.613281 C 198.570312 189.351562 196.890625 190.050781 195.195312 190.710938 C 193.5 191.371094 191.789062 191.984375 190.0625 192.558594 C 188.335938 193.132812 186.597656 193.667969 184.84375 194.15625 C 183.09375 194.644531 181.332031 195.089844 179.554688 195.492188 C 177.78125 195.894531 176 196.253906 174.207031 196.570312 C 172.414062 196.882812 170.617188 197.15625 168.8125 197.382812 C 167.007812 197.609375 165.199219 197.789062 163.382812 197.929688 C 161.570312 198.066406 159.753906 198.160156 157.933594 198.207031 C 156.117188 198.257812 154.296875 198.261719 152.476562 198.21875 C 150.660156 198.179688 148.84375 198.09375 147.027344 197.964844 C 145.214844 197.835938 143.402344 197.660156 141.597656 197.441406 C 139.792969 197.222656 137.992188 196.960938 136.199219 196.652344 C 134.40625 196.347656 132.621094 195.996094 130.84375 195.601562 C 129.070312 195.207031 127.304688 194.769531 125.550781 194.289062 C 123.796875 193.808594 122.054688 193.285156 120.324219 192.714844 C 118.597656 192.148438 116.882812 191.542969 115.183594 190.890625 C 113.484375 190.238281 111.804688 189.546875 110.136719 188.8125 C 108.472656 188.082031 106.828125 187.308594 105.199219 186.492188 C 103.574219 185.679688 101.96875 184.824219 100.382812 183.933594 C 98.796875 183.039062 97.234375 182.109375 95.695312 181.136719 C 94.15625 180.167969 92.640625 179.160156 91.152344 178.117188 C 89.664062 177.074219 88.199219 175.996094 86.761719 174.878906 C 85.324219 173.761719 83.917969 172.613281 82.535156 171.425781 C 81.15625 170.242188 79.804688 169.023438 78.484375 167.773438 C 77.164062 166.523438 75.875 165.238281 74.617188 163.925781 C 73.359375 162.609375 72.136719 161.265625 70.945312 159.890625 C 69.753906 158.515625 68.59375 157.113281 67.472656 155.679688 C 66.347656 154.25 65.261719 152.792969 64.210938 151.308594 C 63.160156 149.820312 62.144531 148.3125 61.167969 146.777344 C 60.191406 145.242188 59.253906 143.683594 58.351562 142.105469 C 57.453125 140.523438 56.589844 138.921875 55.769531 137.300781 C 54.945312 135.675781 54.164062 134.035156 53.421875 132.375 C 52.683594 130.710938 51.980469 129.035156 51.324219 127.335938 C 50.664062 125.640625 50.046875 123.929688 49.472656 122.207031 C 48.898438 120.480469 48.363281 118.738281 47.875 116.988281 C 47.386719 115.234375 46.9375 113.472656 46.535156 111.699219 C 46.132812 109.925781 45.773438 108.140625 45.457031 106.351562 C 45.140625 104.558594 44.871094 102.761719 44.644531 100.957031 C 44.417969 99.152344 44.234375 97.339844 44.09375 95.527344 C 43.957031 93.714844 43.863281 91.898438 43.8125 90.078125 C 43.765625 88.257812 43.757812 86.441406 43.800781 84.621094 C 43.839844 82.804688 43.921875 80.988281 44.050781 79.171875 C 44.183594 77.359375 44.355469 75.546875 44.574219 73.742188 C 44.792969 71.933594 45.054688 70.136719 45.359375 68.34375 C 45.664062 66.546875 46.015625 64.765625 46.410156 62.988281 C 46.804688 61.210938 47.242188 59.445312 47.722656 57.691406 C 48.203125 55.9375 48.726562 54.195312 49.292969 52.464844 C 49.859375 50.738281 50.464844 49.023438 51.117188 47.324219 C 51.765625 45.625 52.457031 43.945312 53.191406 42.277344 C 53.921875 40.613281 54.695312 38.96875 55.511719 37.339844 C 56.324219 35.710938 57.175781 34.105469 58.070312 32.519531 C 58.960938 30.9375 59.890625 29.375 60.859375 27.832031 C 61.832031 26.292969 62.835938 24.78125 63.878906 23.289062 C 99.117188 -27 106.898438 48.640625 157.1875 83.878906 Z M 157.1875 83.878906 "/>
</g>
</svg>
